<svg width="18" height="18" viewBox="0 0 18 18" fill="none" xmlns="http://www.w3.org/2000/svg">
<g clip-path="url(#clip0_74_39)">
<path d="M16.7646 1.23568C15.1171 -0.411886 12.446 -0.411886 10.7984 1.23564L7.27243 4.7616C5.56823 6.46587 5.72602 9.18134 7.27243 10.7278C7.53139 10.9868 7.81792 11.1979 8.12047 11.3714L8.76401 10.7278C9.18609 10.3057 9.03752 9.81218 9.02993 9.45608C8.93729 9.39041 8.84719 9.31943 8.76401 9.23625C7.97043 8.44274 7.93474 7.0824 8.76401 6.25314C8.88716 6.12999 12.2152 2.80199 12.2899 2.72725C13.1125 1.90463 14.4504 1.90463 15.273 2.72725C16.0956 3.54987 16.0956 4.88774 15.273 5.71036L12.9424 8.04097C13.0098 8.41388 13.4143 9.29721 13.2062 10.7544C13.2164 10.7444 13.2285 10.738 13.2387 10.7279L16.7646 7.2019C18.4121 5.55434 18.4121 2.88324 16.7646 1.23568Z" fill="white"/>
<path d="M11.001 6.999C10.7421 6.74004 10.4555 6.52889 10.153 6.35547L9.50951 6.999C9.08736 7.42109 9.23593 7.91458 9.24352 8.27068C9.33623 8.33635 9.42633 8.40733 9.50951 8.49051C10.3031 9.28409 10.3388 10.6444 9.50951 11.4736C9.38608 11.5971 5.78242 15.2007 5.71031 15.2728C4.88769 16.0954 3.54982 16.0954 2.7272 15.2728C1.90457 14.4502 1.90457 13.1123 2.7272 12.2897L5.33112 9.68579C5.26372 9.31288 4.85921 8.42955 5.0673 6.97239C5.05714 6.98238 5.04491 6.98888 5.03479 6.99897L1.23562 10.7982C-0.411874 12.4458 -0.411874 15.1169 1.23562 16.7644C2.88318 18.4119 5.55425 18.4119 7.20182 16.7644L11.001 12.9652C12.6736 11.2926 12.5822 8.58016 11.001 6.999Z" fill="white"/>
</g>
<defs>
<clipPath id="clip0_74_39">
<rect width="18" height="18" fill="white"/>
</clipPath>
</defs>
</svg>
