<svg width="18" height="18" viewBox="0 0 18 18" fill="none" xmlns="http://www.w3.org/2000/svg">
<g clip-path="url(#clip0_74_47)">
<path d="M3.54073 9.66082C3.08098 10.5646 3.60298 10.9966 4.79398 11.7346C5.80648 12.3601 7.20523 12.5888 8.10373 12.6803C7.73548 13.0343 9.42298 11.4113 4.56298 16.0861C3.53248 17.0738 5.19148 18.6586 6.22123 17.6918L9.00898 15.0031C10.0762 16.0298 11.0992 17.0138 11.7967 17.6956C12.8272 18.6661 14.4855 17.0948 13.4662 16.0898C13.3897 16.0171 9.68847 12.4666 9.91422 12.6841C10.824 12.5926 12.2017 12.3503 13.2022 11.7383L13.2015 11.7376C14.3925 10.9958 14.9145 10.5646 14.4615 9.66082C14.1877 9.14782 13.4497 8.71881 12.4672 9.46057C12.4672 9.46057 11.1405 10.4768 9.00073 10.4768C6.86023 10.4768 5.53423 9.46057 5.53423 9.46057C4.55248 8.71506 3.81148 9.14782 3.54073 9.66082Z" fill="white"/>
<path d="M8.99902 9.10649C11.6075 9.10649 13.7375 7.06799 13.7375 4.5585C13.7375 2.0385 11.6075 0 8.99902 0C6.38977 0 4.25977 2.0385 4.25977 4.5585C4.25977 7.06799 6.38977 9.10649 8.99902 9.10649ZM8.99902 2.30925C10.2808 2.30925 11.3263 3.315 11.3263 4.5585C11.3263 5.7915 10.2808 6.79724 8.99902 6.79724C7.71727 6.79724 6.67177 5.7915 6.67177 4.5585C6.67102 3.31425 7.71652 2.30925 8.99902 2.30925Z" fill="white"/>
</g>
<defs>
<clipPath id="clip0_74_47">
<rect width="18" height="18" fill="white"/>
</clipPath>
</defs>
</svg>
