<svg width="18" height="18" viewBox="0 0 18 18" fill="none" xmlns="http://www.w3.org/2000/svg">
<path d="M9.48166 1.14904C8.36424 1.14904 7.27898 1.36551 6.25387 1.7912L4.50603 0.0431856C4.4577 -0.00520807 4.38245 -0.0138835 4.32414 0.0219986C2.6224 1.07415 1.16687 2.52973 0.114844 4.23142C0.0788441 4.28961 0.0875786 4.36491 0.135972 4.41331L1.81145 6.08838C1.31034 7.18827 1.05557 8.36051 1.05557 9.57472C1.05557 14.2205 4.83552 18.0001 9.48166 18.0001C14.1275 18.0001 17.9072 14.2205 17.9072 9.57472C17.9072 4.92876 14.1275 1.14904 9.48166 1.14904ZM12.8198 8.77363L13.4066 11.2572L13.9698 13.8772L11.3532 13.3146L8.87125 12.7308L2.16656 6.02623C3.00766 4.2948 4.42919 2.92084 6.18641 2.14105L12.8198 8.77363Z" fill="white"/>
<path d="M13.0877 11.0595L12.6438 9.1106C11.1158 9.81224 9.90516 11.0229 9.2041 12.551L11.153 12.9948C11.5668 12.1672 12.2607 11.4734 13.0877 11.0595Z" fill="white"/>
</svg>
