<svg width="28" height="28" viewBox="0 0 28 28" fill="none" xmlns="http://www.w3.org/2000/svg">
<path d="M14 0C6.27993 0 0 6.27993 0 14C0 21.7201 6.27993 28 14 28C21.7201 28 28 21.719 28 14C28 6.28102 21.7201 0 14 0ZM14 25.8311C7.47715 25.8311 2.16885 20.5239 2.16885 14C2.16885 7.47605 7.47715 2.16885 14 2.16885C20.5229 2.16885 25.8311 7.47605 25.8311 14C25.8311 20.5239 20.5239 25.8311 14 25.8311Z" fill="white"/>
<path d="M19.4219 12.818H15.0842V8.48027C15.0842 7.88166 14.5995 7.39581 13.9998 7.39581C13.4001 7.39581 12.9153 7.88166 12.9153 8.48027V12.818H8.57762C7.97791 12.818 7.49316 13.3038 7.49316 13.9024C7.49316 14.501 7.97791 14.9869 8.57762 14.9869H12.9153V19.3246C12.9153 19.9232 13.4001 20.409 13.9998 20.409C14.5995 20.409 15.0842 19.9232 15.0842 19.3246V14.9869H19.4219C20.0216 14.9869 20.5064 14.501 20.5064 13.9024C20.5064 13.3038 20.0216 12.818 19.4219 12.818Z" fill="white"/>
</svg>
