<svg width="64" height="64" viewBox="0 0 64 64" fill="none" xmlns="http://www.w3.org/2000/svg">
<path d="M51.5 0H19C18.4696 0 17.9609 0.21075 17.5859 0.585875L8.58587 9.58587C8.21075 9.96087 8 10.4695 8 11V59.5C8 61.9814 10.0186 64 12.5 64H51.5C53.9814 64 56 61.9814 56 59.5V4.5C56 2.01863 53.9814 0 51.5 0ZM19.8284 4H21V12.5C21 12.7758 20.7758 13 20.5 13H12V11.8284L19.8284 4ZM52 59.5C52 59.7757 51.7757 60 51.5 60H12.5C12.2242 60 12 59.7757 12 59.5V17H20.5C22.9814 17 25 14.9814 25 12.5V4H51.5C51.7757 4 52 4.22425 52 4.5V59.5Z" fill="black"/>
<path fill-rule="evenodd" clip-rule="evenodd" d="M23 22H17V28H23V22ZM15 20V30H25V20H15Z" fill="black"/>
<path fill-rule="evenodd" clip-rule="evenodd" d="M23 34H17V40H23V34ZM15 32V42H25V32H15Z" fill="black"/>
<path fill-rule="evenodd" clip-rule="evenodd" d="M35 22H29V28H35V22ZM27 20V30H37V20H27Z" fill="black"/>
<path fill-rule="evenodd" clip-rule="evenodd" d="M35 34H29V40H35V34ZM27 32V42H37V32H27Z" fill="black"/>
<path fill-rule="evenodd" clip-rule="evenodd" d="M47 22H41V28H47V22ZM39 20V30H49V20H39Z" fill="black"/>
<path fill-rule="evenodd" clip-rule="evenodd" d="M47 34H41V40H47V34ZM39 32V42H49V32H39Z" fill="black"/>
<rect x="16" y="47" width="8" height="3" fill="#C4C4C4" stroke="black" stroke-width="2"/>
</svg>
