<svg width="64" height="64" viewBox="0 0 64 64" fill="none" xmlns="http://www.w3.org/2000/svg">
<path d="M50.5 64H13.5C11.0186 64 9 61.9814 9 59.5V4.5C9 2.01863 11.0186 0 13.5 0H50.5C52.9814 0 55 2.01863 55 4.5V59.5C55 61.9814 52.9814 64 50.5 64ZM13.5 4C13.2242 4 13 4.22425 13 4.5V59.5C13 59.7757 13.2242 60 13.5 60H50.5C50.7757 60 51 59.7757 51 59.5V4.5C51 4.22425 50.7757 4 50.5 4H13.5Z" fill="black"/>
<path d="M43 53H39C37.8955 53 37 52.1045 37 51C37 49.8955 37.8955 49 39 49H43C44.1045 49 45 49.8955 45 51C45 52.1045 44.1045 53 43 53Z" fill="black"/>
<path d="M42 27H22C20.8955 27 20 26.1045 20 25C20 23.8955 20.8955 23 22 23H42C43.1045 23 44 23.8955 44 25C44 26.1045 43.1045 27 42 27Z" fill="black"/>
<path d="M42 37H22C20.8955 37 20 36.1045 20 35C20 33.8955 20.8955 33 22 33H42C43.1045 33 44 33.8955 44 35C44 36.1045 43.1045 37 42 37Z" fill="black"/>
</svg>
