<svg width="20" height="20" viewBox="0 0 20 20" fill="none" xmlns="http://www.w3.org/2000/svg">
<path d="M17.0711 2.92891C15.1823 1.04016 12.6711 0 10 0C7.32895 0 4.8177 1.04016 2.92895 2.92895C1.0402 4.8177 0 7.32891 0 10C0 12.6711 1.04016 15.1824 2.92891 17.0711C4.81766 18.9598 7.32887 20 9.99996 20C12.6711 20 15.1823 18.9598 17.0711 17.0711C18.9598 15.1823 20 12.6711 20 10C20 7.32891 18.9598 4.8177 17.0711 2.92891ZM16.2424 16.2425C14.575 17.9098 12.358 18.8281 9.99996 18.8281C7.64187 18.8281 5.42492 17.9098 3.75754 16.2425C2.09012 14.575 1.17188 12.3581 1.17188 10C1.17188 7.64195 2.0902 5.425 3.75758 3.75758C5.425 2.09016 7.64191 1.17188 10 1.17188C12.3581 1.17188 14.575 2.09016 16.2425 3.75754C19.6845 7.19965 19.6845 12.8004 16.2424 16.2425Z" fill="#6C757D"/>
<path d="M14.4083 13.5799L10.8285 10.0001L14.4083 6.42042C14.6371 6.19159 14.6371 5.82061 14.4082 5.59183C14.1794 5.363 13.8084 5.363 13.5796 5.59183L9.99991 9.17151L6.42018 5.59179C6.19139 5.36296 5.82037 5.36296 5.59154 5.59179C5.36271 5.82062 5.36271 6.19159 5.59154 6.42042L9.17128 10.0001L5.59154 13.5799C5.36271 13.8087 5.36271 14.1797 5.59154 14.4085C5.70596 14.5229 5.85592 14.5801 6.00584 14.5801C6.1558 14.5801 6.30576 14.5229 6.42018 14.4085L9.99991 10.8288L13.5796 14.4085C13.6941 14.5229 13.844 14.5801 13.994 14.5801C14.1439 14.5801 14.2939 14.5229 14.4083 14.4085C14.6371 14.1797 14.6371 13.8087 14.4083 13.5799Z" fill="#6C757D"/>
</svg>
