<svg width="20" height="20" viewBox="0 0 20 20" fill="none" xmlns="http://www.w3.org/2000/svg">
<path d="M19.8284 4.60946L15.3906 0.171602C15.2807 0.0617579 15.1317 0 14.9763 0C14.8209 0 14.6719 0.0617579 14.562 0.171602L10.9679 3.76563H0.585939C0.262344 3.76563 0 4.02798 0 4.35157V19.4141C0 19.7377 0.262344 20 0.585939 20H15.6485C15.9721 20 16.2344 19.7377 16.2344 19.4141V9.03213L19.8284 5.4381C20.0572 5.20927 20.0572 4.83829 19.8284 4.60946ZM15.0625 18.8281H1.17188V4.93751H9.79603L5.68626 9.04721C5.57638 9.15709 5.51462 9.30611 5.51462 9.4615V13.8994C5.51462 14.223 5.77696 14.4853 6.10056 14.4853H10.5384C10.6938 14.4853 10.8428 14.4236 10.9527 14.3137L15.0625 10.204V18.8281ZM10.2958 13.3135H6.68654V9.70424L14.9763 1.41457L18.5854 5.02376L10.2958 13.3135Z" fill="#6C757D"/>
</svg>
