<svg width="28" height="28" viewBox="0 0 28 28" fill="none" xmlns="http://www.w3.org/2000/svg">
<g clip-path="url(#clip0_110_50)">
<path d="M28 14C28 6.27993 21.7201 -2.74504e-07 14 -6.11959e-07C6.27993 -9.49414e-07 -2.74504e-07 6.27993 -6.11959e-07 14C-9.49414e-07 21.7201 6.28102 28 14 28C21.719 28 28 21.7201 28 14ZM2.16885 14C2.16885 7.47715 7.47606 2.16885 14 2.16885C20.5239 2.16885 25.8311 7.47715 25.8311 14C25.8311 20.5239 20.5239 25.8311 14 25.8311C7.47605 25.8311 2.16885 20.5229 2.16885 14Z" fill="white"/>
<path d="M12.5035 20.1921L17.9256 14.7699C18.3464 14.347 18.3464 13.6638 17.9256 13.2408L12.5035 7.81868C12.0979 7.4706 11.4982 7.4706 11.0927 7.81868C10.6383 8.208 10.5852 8.89335 10.9745 9.34775L15.6266 14L10.9744 18.663C10.5537 19.086 10.5537 19.7691 10.9744 20.1921C11.3974 20.6128 12.0806 20.6128 12.5035 20.1921Z" fill="white"/>
</g>
<defs>
<clipPath id="clip0_110_50">
<rect width="28" height="28" fill="white" transform="translate(28) rotate(90)"/>
</clipPath>
</defs>
</svg>
