<svg width="26" height="26" viewBox="0 0 26 26" fill="none" xmlns="http://www.w3.org/2000/svg">
<path d="M12.9991 14.6447C5.18711 14.6447 0.884766 18.3404 0.884766 25.0511C0.884766 25.5752 1.30955 26 1.83366 26H24.1646C24.6887 26 25.1135 25.5752 25.1135 25.0511C25.1135 18.3407 20.8112 14.6447 12.9991 14.6447ZM2.81709 24.1022C3.19034 19.0847 6.61111 16.5426 12.9991 16.5426C19.3872 16.5426 22.808 19.0847 23.1815 24.1022H2.81709Z" fill="#ED3024"/>
<path d="M13.0004 0C9.41199 0 6.70605 2.76037 6.70605 6.42063C6.70605 10.1881 9.5297 13.2527 13.0004 13.2527C16.4712 13.2527 19.2948 10.1881 19.2948 6.42093C19.2948 2.76037 16.5889 0 13.0004 0ZM13.0004 11.3552C10.576 11.3552 8.60385 9.14174 8.60385 6.42093C8.60385 3.80006 10.453 1.8978 13.0004 1.8978C15.5072 1.8978 17.397 3.84211 17.397 6.42093C17.397 9.14174 15.4249 11.3552 13.0004 11.3552Z" fill="#ED3024"/>
</svg>
